<mxfile host="app.diagrams.net" modified="2022-03-17T10:24:34.994Z" agent="5.0 (Windows NT 10.0; Win64; x64) AppleWebKit/537.36 (KHTML, like Gecko) Chrome/99.0.4844.51 Safari/537.36" etag="ZlQTmVqJd2LrPzQ0UcEK" version="17.1.3" type="github">
  <diagram id="jvkn0z_RW77Gzek_vjeN" name="Page-1">
    <mxGraphModel dx="783" dy="-4285" grid="0" gridSize="10" guides="1" tooltips="1" connect="1" arrows="1" fold="1" page="1" pageScale="1" pageWidth="827" pageHeight="1169" math="0" shadow="0">
      <root>
        <mxCell id="0" />
        <mxCell id="1" parent="0" />
        <mxCell id="Yrn79NXsER-LNylBQaj1-14" value="Cas d&#39;utilisation : Gerer les ressources" style="shape=umlFrame;tabPosition=left;html=1;boundedLbl=1;labelInHeader=1;width=256;height=29;swimlaneFillColor=#ffffff;align=left;spacingLeft=5;fontSize=14;" vertex="1" parent="1">
          <mxGeometry x="237" y="4921" width="470" height="405" as="geometry" />
        </mxCell>
        <mxCell id="Yrn79NXsER-LNylBQaj1-15" style="edgeStyle=orthogonalEdgeStyle;rounded=0;orthogonalLoop=1;jettySize=auto;html=1;endArrow=none;endFill=0;" edge="1" parent="1" source="Yrn79NXsER-LNylBQaj1-16" target="Yrn79NXsER-LNylBQaj1-17">
          <mxGeometry relative="1" as="geometry" />
        </mxCell>
        <mxCell id="Yrn79NXsER-LNylBQaj1-16" value="&lt;span style=&quot;font-weight: 700&quot;&gt;Administrateur&lt;/span&gt;" style="shape=umlActor;verticalLabelPosition=bottom;verticalAlign=top;html=1;outlineConnect=0;" vertex="1" parent="1">
          <mxGeometry x="134" y="5108" width="30" height="60" as="geometry" />
        </mxCell>
        <mxCell id="Yrn79NXsER-LNylBQaj1-17" value="Consulter les ressources" style="shape=ellipse;html=1;strokeWidth=3;fontStyle=1;whiteSpace=wrap;align=center;perimeter=ellipsePerimeter;fillColor=#dae8fc;strokeColor=#67BFBC;fontSize=12;" vertex="1" parent="1">
          <mxGeometry x="254" y="5119" width="160" height="38" as="geometry" />
        </mxCell>
        <mxCell id="Yrn79NXsER-LNylBQaj1-18" value="Ajouter une ressource a un departement&amp;nbsp;" style="shape=ellipse;html=1;strokeWidth=3;fontStyle=1;whiteSpace=wrap;align=center;perimeter=ellipsePerimeter;fillColor=#dae8fc;strokeColor=#67BFBC;fontSize=10;" vertex="1" parent="1">
          <mxGeometry x="496" y="4975" width="185" height="40" as="geometry" />
        </mxCell>
        <mxCell id="Yrn79NXsER-LNylBQaj1-19" value="Supprimer une ressource d&#39;un departement" style="shape=ellipse;html=1;strokeWidth=3;fontStyle=1;whiteSpace=wrap;align=center;perimeter=ellipsePerimeter;fillColor=#dae8fc;strokeColor=#67BFBC;fontSize=10;" vertex="1" parent="1">
          <mxGeometry x="500" y="5046" width="185" height="40" as="geometry" />
        </mxCell>
        <mxCell id="Yrn79NXsER-LNylBQaj1-20" value="Ajouter une planification a une ressource" style="shape=ellipse;html=1;strokeWidth=3;fontStyle=1;whiteSpace=wrap;align=center;perimeter=ellipsePerimeter;fillColor=#dae8fc;strokeColor=#67BFBC;fontSize=10;" vertex="1" parent="1">
          <mxGeometry x="500" y="5117" width="185" height="40" as="geometry" />
        </mxCell>
        <mxCell id="Yrn79NXsER-LNylBQaj1-21" value="Supprimer une planification d&#39;une ressource" style="shape=ellipse;html=1;strokeWidth=3;fontStyle=1;whiteSpace=wrap;align=center;perimeter=ellipsePerimeter;fillColor=#dae8fc;strokeColor=#67BFBC;verticalAlign=middle;fontSize=10;" vertex="1" parent="1">
          <mxGeometry x="496" y="5193" width="185" height="40" as="geometry" />
        </mxCell>
        <mxCell id="Yrn79NXsER-LNylBQaj1-22" value="Modifier une planification d&#39;une ressource" style="shape=ellipse;html=1;strokeWidth=3;fontStyle=1;whiteSpace=wrap;align=center;perimeter=ellipsePerimeter;fillColor=#dae8fc;strokeColor=#67BFBC;verticalAlign=middle;fontSize=10;" vertex="1" parent="1">
          <mxGeometry x="500" y="5269" width="185" height="40" as="geometry" />
        </mxCell>
        <mxCell id="Yrn79NXsER-LNylBQaj1-23" value="&amp;lt;&amp;lt;extend&amp;gt;&amp;gt;" style="edgeStyle=none;html=1;startArrow=open;endArrow=none;startSize=12;verticalAlign=bottom;dashed=1;labelBackgroundColor=none;rounded=0;entryX=0;entryY=0.5;entryDx=0;entryDy=0;exitX=0.5;exitY=0;exitDx=0;exitDy=0;" edge="1" parent="1" source="Yrn79NXsER-LNylBQaj1-17" target="Yrn79NXsER-LNylBQaj1-18">
          <mxGeometry x="0.4919" y="-23" width="160" relative="1" as="geometry">
            <mxPoint x="376" y="5103.5" as="sourcePoint" />
            <mxPoint x="536" y="5103.5" as="targetPoint" />
            <mxPoint as="offset" />
          </mxGeometry>
        </mxCell>
        <mxCell id="Yrn79NXsER-LNylBQaj1-24" value="&amp;lt;&amp;lt;extend&amp;gt;&amp;gt;" style="edgeStyle=none;html=1;startArrow=open;endArrow=none;startSize=12;verticalAlign=bottom;dashed=1;labelBackgroundColor=none;rounded=0;entryX=0;entryY=0.5;entryDx=0;entryDy=0;" edge="1" parent="1" source="Yrn79NXsER-LNylBQaj1-17" target="Yrn79NXsER-LNylBQaj1-19">
          <mxGeometry x="0.3491" y="-9" width="160" relative="1" as="geometry">
            <mxPoint x="376" y="5103.5" as="sourcePoint" />
            <mxPoint x="536" y="5103.5" as="targetPoint" />
            <mxPoint as="offset" />
          </mxGeometry>
        </mxCell>
        <mxCell id="Yrn79NXsER-LNylBQaj1-25" value="&amp;lt;&amp;lt;extend&amp;gt;&amp;gt;" style="edgeStyle=none;html=1;startArrow=open;endArrow=none;startSize=12;verticalAlign=bottom;dashed=1;labelBackgroundColor=none;rounded=0;" edge="1" parent="1" source="Yrn79NXsER-LNylBQaj1-17" target="Yrn79NXsER-LNylBQaj1-20">
          <mxGeometry x="0.2877" y="3" width="160" relative="1" as="geometry">
            <mxPoint x="376" y="5103.5" as="sourcePoint" />
            <mxPoint x="536" y="5103.5" as="targetPoint" />
            <mxPoint y="1" as="offset" />
          </mxGeometry>
        </mxCell>
        <mxCell id="Yrn79NXsER-LNylBQaj1-26" value="&amp;lt;&amp;lt;extend&amp;gt;&amp;gt;" style="edgeStyle=none;html=1;startArrow=open;endArrow=none;startSize=12;verticalAlign=bottom;dashed=1;labelBackgroundColor=none;rounded=0;entryX=0;entryY=0.5;entryDx=0;entryDy=0;exitX=1;exitY=1;exitDx=0;exitDy=0;" edge="1" parent="1" source="Yrn79NXsER-LNylBQaj1-17" target="Yrn79NXsER-LNylBQaj1-21">
          <mxGeometry x="0.6319" y="7" width="160" relative="1" as="geometry">
            <mxPoint x="376" y="5103.5" as="sourcePoint" />
            <mxPoint x="536" y="5103.5" as="targetPoint" />
            <mxPoint as="offset" />
          </mxGeometry>
        </mxCell>
        <mxCell id="Yrn79NXsER-LNylBQaj1-27" value="&amp;lt;&amp;lt;extend&amp;gt;&amp;gt;" style="edgeStyle=none;html=1;startArrow=open;endArrow=none;startSize=12;verticalAlign=bottom;dashed=1;labelBackgroundColor=none;rounded=0;entryX=0;entryY=0.5;entryDx=0;entryDy=0;exitX=0.5;exitY=1;exitDx=0;exitDy=0;" edge="1" parent="1" source="Yrn79NXsER-LNylBQaj1-17" target="Yrn79NXsER-LNylBQaj1-22">
          <mxGeometry x="0.6586" y="8" width="160" relative="1" as="geometry">
            <mxPoint x="376" y="5103.5" as="sourcePoint" />
            <mxPoint x="536" y="5103.5" as="targetPoint" />
            <mxPoint as="offset" />
          </mxGeometry>
        </mxCell>
      </root>
    </mxGraphModel>
  </diagram>
</mxfile>
